<svg width="24" height="24" viewBox="0 0 24 24" fill="none" xmlns="http://www.w3.org/2000/svg">
<path d="M6.21762 7.44178C6.21762 7.44178 5.12449 5.82741 4.38012 5.55178C3.63387 5.27616 2.85949 5.45616 2.51637 5.00803C2.16949 4.55428 1.98949 3.77991 2.10012 3.28303C2.21074 2.78616 2.49387 2.40928 2.74137 2.35491C2.98887 2.30053 3.64512 2.64741 3.64512 2.64741C3.64512 2.64741 3.61699 1.80553 3.69949 1.50178C3.78199 1.19803 4.12887 0.881158 4.30699 0.770533C4.88449 0.410533 5.19012 0.688033 5.19012 0.688033C5.19012 0.688033 4.96887 2.62116 5.68699 3.47616C6.40512 4.33116 9.24949 7.28616 8.69637 7.31428C8.14512 7.34053 6.21762 7.44178 6.21762 7.44178Z" fill="#DDBCA8"/>
<path d="M6.27021 6.17432C6.27021 6.17432 5.04958 5.02869 4.66521 4.82807C4.28083 4.62744 3.48208 4.73057 3.20271 4.58432C2.82583 4.38744 2.41708 3.96557 2.38333 3.28119C2.34958 2.59682 2.54083 2.26119 3.21771 2.22932C3.76896 2.20307 4.10271 2.41307 4.25271 2.26307C4.40271 2.11307 4.26958 1.10994 4.35208 0.943067C4.43646 0.776193 4.66896 0.459317 5.28771 0.558692C5.90646 0.658067 6.17271 1.22994 6.20646 1.37807C6.34521 1.97994 6.24396 3.11057 6.39583 3.37869C6.63583 3.80057 8.25958 5.60432 8.25958 5.60432C8.25958 5.60432 6.28521 6.14057 6.27021 6.17432Z" fill="#FFEBCA"/>
<path d="M6.22148 5.76C3.58523 7.62 2.6946 10.1981 2.78835 12.1125C2.86898 13.7587 3.45398 14.6456 4.4121 15.4387C5.37023 16.2319 5.96835 16.4531 6.36585 16.9894C6.76335 17.5256 7.32023 19.7437 8.55773 20.91C9.79523 22.0762 13.7477 24.4275 18.3527 20.2987C23.0927 16.0481 21.634 11.7844 19.8827 10.1962C18.1915 8.6625 16.7215 8.5575 15.9677 7.64062C15.1034 6.59062 15.4315 6.165 14.029 5.0175C12.3752 3.66375 9.4671 3.4725 6.22148 5.76Z" fill="#CF701E"/>
<path d="M11.4752 11.9138C8.69642 14.145 6.78392 18.7519 10.1214 20.9044C12.6208 22.515 16.187 21.3 18.2177 19.4194C19.8058 17.9494 21.8102 14.0513 19.9052 11.7375C18.2102 9.67879 14.4414 9.53254 11.4752 11.9138Z" fill="#FBD5B2"/>
<path d="M11.0195 6.11612C10.8414 5.938 10.5582 5.953 10.3276 6.22487C10.097 6.49675 10.0651 6.84175 10.2601 6.99737C10.5451 7.228 10.8432 6.93925 10.9932 6.7405C11.1545 6.523 11.222 6.31862 11.0195 6.11612Z" fill="#AB5931"/>
<path d="M5.89336 8.32683C5.54086 8.27246 5.43211 8.61183 5.41898 8.89683C5.40586 9.18183 5.36461 9.50808 5.74523 9.53433C6.12586 9.56058 6.20648 9.16871 6.20648 8.90996C6.20461 8.65121 6.24211 8.37933 5.89336 8.32683Z" fill="#AB5931"/>
<path d="M6.00014 11.6363C5.66076 11.6213 5.55201 11.9082 5.56701 12.3282C5.58201 12.7482 5.71701 13.0069 5.94764 12.9919C6.17826 12.9788 6.30389 12.7201 6.32826 12.3676C6.35451 11.9607 6.32639 11.6494 6.00014 11.6363Z" fill="#AB5931"/>
<path d="M7.20759 12.9918C7.00321 12.8455 6.70509 12.9505 6.59634 13.3724C6.48009 13.8224 6.65634 13.9649 6.80071 14.023C7.03134 14.1186 7.20759 13.873 7.28821 13.603C7.37071 13.3311 7.39884 13.1268 7.20759 12.9918Z" fill="#AB5931"/>
<path d="M15.1876 11.3474C14.9644 11.1956 13.3276 11.5406 11.7563 13.0331C10.1851 14.5256 9.6638 15.7668 9.81942 16.1924C9.97505 16.6181 11.0401 16.5993 11.4676 16.5993C11.8951 16.5993 12.9957 16.5899 13.3482 16.5806C14.0457 16.5618 14.0457 17.2387 13.3294 17.3362C12.75 17.4149 11.1582 17.4712 10.5188 17.7037C9.9563 17.9081 9.4538 18.0712 9.41442 18.5174C9.37505 18.9637 10.0726 20.0681 11.2369 20.4749C12.4013 20.8818 13.7757 20.7656 14.0269 20.5724C14.2782 20.3793 14.4526 19.0031 14.4919 18.3637C14.5313 17.7243 14.5107 16.8131 14.9963 16.8131C15.4819 16.8131 15.3451 17.9568 15.3638 18.4218C15.3826 18.8868 15.345 19.7006 15.5963 19.8956C15.8475 20.0887 16.8507 19.5899 17.7282 18.7124C18.5232 17.9174 19.1625 17.0643 18.93 16.7737C18.6975 16.4831 16.7794 16.4437 16.3144 16.4643C15.8494 16.4831 15.7725 15.6899 16.4307 15.6693C17.0888 15.6506 18.6788 15.7856 19.1832 15.5137C19.6875 15.2418 20.3063 14.0024 19.4551 12.6074C18.6038 11.2124 17.6138 11.1731 17.1882 11.2124C16.7625 11.2518 16.5676 12.3749 16.4138 12.9187C16.2582 13.4606 16.1044 14.4693 16.0463 14.7018C15.9882 14.9343 15.4838 15.1274 15.4463 14.6249C15.4069 14.1206 15.4857 13.2299 15.5044 12.7256C15.5232 12.2212 15.5551 11.6006 15.1876 11.3474Z" fill="#FF605E"/>
<path d="M16.292 17.1618C16.292 17.1618 14.7808 15.8624 14.6645 16.0181C14.5483 16.1737 14.3158 16.4437 14.2764 16.8712C14.237 17.2968 14.3795 17.4299 14.3795 17.4299C14.3795 17.4299 15.7877 19.2937 16.097 19.6424C16.4064 19.9912 16.8452 20.6362 16.8845 20.9456C16.9239 21.2549 16.772 22.2881 16.9108 22.6087C17.0852 23.0156 17.4302 23.2856 17.9533 23.3849C18.2177 23.4356 19.1702 23.3718 19.4233 23.1187C19.6764 22.8656 19.7852 22.3987 19.7852 22.1662C19.7852 21.9337 19.6764 21.7649 19.9277 21.6487C20.1789 21.5324 20.9252 21.6224 21.2739 21.4293C21.6227 21.2362 21.8945 20.8199 21.8758 20.3343C21.857 19.8506 21.1745 19.5224 21.1164 19.5224C21.0583 19.5224 16.292 17.1618 16.292 17.1618Z" fill="#DFBBAA"/>
<path d="M16.4851 15.3467C16.4007 15.2886 16.352 15.268 16.2882 15.2624C16.0107 15.2399 15.6507 15.2642 15.242 15.5211C14.8126 15.7892 14.5164 16.213 14.5164 16.213C14.5164 16.213 16.892 19.138 17.1057 19.4492C17.3195 19.7586 17.7057 20.263 17.7057 20.5142C17.7057 20.7655 17.5595 21.7967 17.6476 22.0255C17.7826 22.3742 18.287 22.858 18.752 22.858C19.412 22.858 19.6689 22.498 19.7664 22.2449C19.8639 21.9917 19.8582 21.2286 20.012 20.8424C20.2051 20.3586 21.7726 20.7749 21.8701 20.4655C21.9676 20.1561 22.1082 19.318 21.4276 18.9242C20.9232 18.6336 19.6632 18.7892 19.6632 18.7892C19.6632 18.7892 16.7326 15.5136 16.4851 15.3467Z" fill="#FFEBCA"/>
</svg>
